<svg width="310" height="205" viewBox="0 0 310 205" fill="none" xmlns="http://www.w3.org/2000/svg">
<path fill-rule="evenodd" clip-rule="evenodd" d="M107.238 1.02368C96.6727 5.14976 90.7361 17.0505 93.764 28.0327C94.9728 32.4163 98.1094 35.8135 129.086 66.3009L163.081 99.7585L131.448 133.21C114.049 151.608 98.4823 168.637 96.855 171.05C86.9438 185.742 97.5159 205 115.493 205C119.304 205 122.645 204.27 125.582 202.797C128.715 201.225 141.768 188.104 171.16 156.983C193.813 132.998 213.397 111.492 214.678 109.192C217.695 103.777 217.818 95.4339 214.964 89.6817C212.09 83.89 129.833 3.59159 124.59 1.46062C120.303 -0.282065 111.169 -0.512193 107.238 1.02368ZM119.929 11.4483C121.809 12.2462 141.167 30.476 164.337 53.2667C207.951 96.1689 208.271 96.5571 205.41 103.095C204.667 104.791 185.513 125.814 162.844 149.814C127.201 187.55 121.141 193.539 118.025 194.111C108.354 195.887 100.696 185.881 105.43 177.654C106.512 175.776 134.678 145.511 160.006 119.014C173.996 104.378 175.344 102.819 176.084 100.408C176.735 98.2907 172.717 93.9994 140.458 62.3441C105.602 28.1422 104.099 26.5101 104.099 22.8615C104.099 17.7104 106.404 13.7141 110.519 11.7292C114.734 9.69551 115.732 9.66611 119.929 11.4483Z" fill="#FFD500"/>
<path fill-rule="evenodd" clip-rule="evenodd" d="M200.212 1.02368C189.647 5.14976 183.711 17.0505 186.739 28.0327C187.947 32.4163 191.084 35.8135 222.061 66.3009L256.056 99.7585L224.422 133.21C207.024 151.608 191.457 168.637 189.83 171.05C179.918 185.742 190.491 205 208.468 205C212.279 205 215.62 204.27 218.556 202.797C221.69 201.225 234.743 188.104 264.135 156.983C286.788 132.998 306.371 111.492 307.653 109.192C310.67 103.777 310.792 95.4339 307.939 89.6817C305.065 83.89 222.808 3.59159 217.565 1.46062C213.278 -0.282065 204.143 -0.512193 200.212 1.02368ZM212.904 11.4483C214.784 12.2462 234.142 30.476 257.311 53.2667C300.926 96.1689 301.246 96.5571 298.385 103.095C297.642 104.791 278.488 125.814 255.819 149.814C220.175 187.55 214.116 193.539 211 194.111C201.329 195.887 193.671 185.881 198.404 177.654C199.487 175.776 227.652 145.511 252.98 119.014C266.971 104.378 268.318 102.819 269.059 100.408C269.71 98.2907 265.692 93.9994 233.432 62.3441C198.576 28.1422 197.074 26.5101 197.074 22.8615C197.074 17.7104 199.378 13.7141 203.494 11.7292C207.709 9.69551 208.706 9.66611 212.904 11.4483Z" fill="#FFD500"/>
<path fill-rule="evenodd" clip-rule="evenodd" d="M14.2629 1.02368C3.69804 5.14976 -2.23855 17.0505 0.7893 28.0327C1.99816 32.4163 5.13478 35.8135 36.1115 66.3009L70.1067 99.7585L38.4731 133.21C21.0747 151.608 5.5077 168.637 3.88035 171.05C-6.03086 185.742 4.54121 205 22.5188 205C26.3297 205 29.6704 204.27 32.6071 202.797C35.7406 201.225 48.7936 188.104 78.1854 156.983C100.839 132.998 120.422 111.492 121.703 109.192C124.721 103.777 124.843 95.4339 121.989 89.6817C119.116 83.89 36.8582 3.59159 31.6157 1.46062C27.3282 -0.282065 18.194 -0.512193 14.2629 1.02368ZM26.9543 11.4483C28.8344 12.2462 48.1927 30.476 71.362 53.2667C114.976 96.1689 115.296 96.5571 112.435 103.095C111.693 104.791 92.5384 125.814 69.8694 149.814C34.2262 187.55 28.1662 193.539 25.0503 194.111C15.3795 195.887 7.7213 185.881 12.4552 177.654C13.5377 175.776 41.7031 145.511 67.0312 119.014C81.0216 104.378 82.3692 102.819 83.1098 100.408C83.7604 98.2907 79.7422 93.9994 47.4831 62.3441C12.6272 28.1422 11.1242 26.5101 11.1242 22.8615C11.1242 17.7104 13.429 13.7141 17.5445 11.7292C21.7595 9.69551 22.7569 9.66611 26.9543 11.4483Z" fill="#005FF7"/>
</svg>
